<svg width="28" height="28" viewBox="0 0 28 28" fill="none" xmlns="http://www.w3.org/2000/svg">
<g id="Icon/Fill/globe-2">
<path id="Mask" fill-rule="evenodd" clip-rule="evenodd" d="M19.7035 21.3717C19.5028 20.8665 19.2182 20.4255 18.9685 20.0487C18.8425 19.8597 18.713 19.6672 18.5998 19.4688C18.146 18.6802 18.3023 18.3605 19.0385 17.1273L19.1575 16.9255C19.7537 15.921 19.7863 14.9573 19.8167 14.108C19.8307 13.6903 19.8447 13.2972 19.9252 12.9273C20.113 12.0733 21.9178 11.8458 23.0367 11.7117C23.2245 12.4455 23.333 13.2097 23.333 14.0007C23.333 16.9978 21.9073 19.6625 19.7035 21.3717ZM13.9997 4.66732C14.7183 4.66732 15.4125 4.75598 16.0845 4.90998C15.8873 5.34398 15.5828 5.73948 15.1815 6.05332C14.9272 6.25398 14.6413 6.42082 14.3578 6.58998C13.5983 7.04265 12.7385 7.55598 12.1995 8.54298C11.4808 9.86132 11.4808 11.2077 11.4808 12.3953C11.4808 13.9762 11.4295 14.9107 10.3748 15.7355C8.77767 16.9873 6.33351 16.2885 4.82151 15.6526C4.72584 15.1148 4.66634 14.5641 4.66634 14.0007C4.66634 8.85448 8.85351 4.66732 13.9997 4.66732ZM13.9997 2.33398C7.56667 2.33398 2.33301 7.56765 2.33301 14.0007C2.33301 20.4325 7.56667 25.6673 13.9997 25.6673C20.4327 25.6673 25.6663 20.4325 25.6663 14.0007C25.6663 7.56765 20.4327 2.33398 13.9997 2.33398Z" fill="white"/>
<mask id="mask0" style="mask-type:alpha" maskUnits="userSpaceOnUse" x="2" y="2" width="24" height="24">
<path id="Mask_2" fill-rule="evenodd" clip-rule="evenodd" d="M19.7035 21.3717C19.5028 20.8665 19.2182 20.4255 18.9685 20.0487C18.8425 19.8597 18.713 19.6672 18.5998 19.4688C18.146 18.6802 18.3023 18.3605 19.0385 17.1273L19.1575 16.9255C19.7537 15.921 19.7863 14.9573 19.8167 14.108C19.8307 13.6903 19.8447 13.2972 19.9252 12.9273C20.113 12.0733 21.9178 11.8458 23.0367 11.7117C23.2245 12.4455 23.333 13.2097 23.333 14.0007C23.333 16.9978 21.9073 19.6625 19.7035 21.3717ZM13.9997 4.66732C14.7183 4.66732 15.4125 4.75598 16.0845 4.90998C15.8873 5.34398 15.5828 5.73948 15.1815 6.05332C14.9272 6.25398 14.6413 6.42082 14.3578 6.58998C13.5983 7.04265 12.7385 7.55598 12.1995 8.54298C11.4808 9.86132 11.4808 11.2077 11.4808 12.3953C11.4808 13.9762 11.4295 14.9107 10.3748 15.7355C8.77767 16.9873 6.33351 16.2885 4.82151 15.6526C4.72584 15.1148 4.66634 14.5641 4.66634 14.0007C4.66634 8.85448 8.85351 4.66732 13.9997 4.66732ZM13.9997 2.33398C7.56667 2.33398 2.33301 7.56765 2.33301 14.0007C2.33301 20.4325 7.56667 25.6673 13.9997 25.6673C20.4327 25.6673 25.6663 20.4325 25.6663 14.0007C25.6663 7.56765 20.4327 2.33398 13.9997 2.33398Z" fill="white"/>
</mask>
<g mask="url(#mask0)">
<g id="&#240;&#159;&#142;&#168; Color">
<rect id="Base" width="28" height="28" fill="white"/>
</g>
</g>
</g>
</svg>
