<svg width="28" height="28" viewBox="0 0 28 28" fill="none" xmlns="http://www.w3.org/2000/svg">
<path fill-rule="evenodd" clip-rule="evenodd" d="M15.1667 14.9762V16.333C15.1667 16.9782 14.6452 17.4997 14 17.4997C13.3549 17.4997 12.8334 16.9782 12.8334 16.333V13.9997C12.8334 13.3545 13.3549 12.833 14 12.833C14.9649 12.833 15.75 12.0478 15.75 11.083C15.75 10.1182 14.9649 9.33301 14 9.33301C13.0352 9.33301 12.25 10.1182 12.25 11.083C12.25 11.7282 11.7285 12.2497 11.0834 12.2497C10.4382 12.2497 9.91671 11.7282 9.91671 11.083C9.91671 8.83134 11.7484 6.99967 14 6.99967C16.2517 6.99967 18.0834 8.83134 18.0834 11.083C18.0834 12.9263 16.8467 14.4698 15.1667 14.9762M14 20.9997C13.3549 20.9997 12.8334 20.4782 12.8334 19.833C12.8334 19.1878 13.3549 18.6663 14 18.6663C14.6452 18.6663 15.1667 19.1878 15.1667 19.833C15.1667 20.4782 14.6452 20.9997 14 20.9997M14 2.33301C7.56704 2.33301 2.33337 7.56667 2.33337 13.9997C2.33337 20.4327 7.56704 25.6663 14 25.6663C20.433 25.6663 25.6667 20.4327 25.6667 13.9997C25.6667 7.56667 20.433 2.33301 14 2.33301" fill="#231F20"/>
<mask id="mask0" style="mask-type:alpha" maskUnits="userSpaceOnUse" x="2" y="2" width="24" height="24">
<path fill-rule="evenodd" clip-rule="evenodd" d="M15.1667 14.9762V16.333C15.1667 16.9782 14.6452 17.4997 14 17.4997C13.3549 17.4997 12.8334 16.9782 12.8334 16.333V13.9997C12.8334 13.3545 13.3549 12.833 14 12.833C14.9649 12.833 15.75 12.0478 15.75 11.083C15.75 10.1182 14.9649 9.33301 14 9.33301C13.0352 9.33301 12.25 10.1182 12.25 11.083C12.25 11.7282 11.7285 12.2497 11.0834 12.2497C10.4382 12.2497 9.91671 11.7282 9.91671 11.083C9.91671 8.83134 11.7484 6.99967 14 6.99967C16.2517 6.99967 18.0834 8.83134 18.0834 11.083C18.0834 12.9263 16.8467 14.4698 15.1667 14.9762M14 20.9997C13.3549 20.9997 12.8334 20.4782 12.8334 19.833C12.8334 19.1878 13.3549 18.6663 14 18.6663C14.6452 18.6663 15.1667 19.1878 15.1667 19.833C15.1667 20.4782 14.6452 20.9997 14 20.9997M14 2.33301C7.56704 2.33301 2.33337 7.56667 2.33337 13.9997C2.33337 20.4327 7.56704 25.6663 14 25.6663C20.433 25.6663 25.6667 20.4327 25.6667 13.9997C25.6667 7.56667 20.433 2.33301 14 2.33301" fill="white"/>
</mask>
<g mask="url(#mask0)">
<rect width="28" height="28" fill="#5F5F6F"/>
</g>
</svg>
